<svg xmlns="http://www.w3.org/2000/svg" viewBox="0 0 551 184">
  <defs>
    <radialGradient id="a" cx="45.34%" cy="87.98%" r="107.29%" fx="45.34%" fy="87.98%" gradientTransform="matrix(1 0 0 .73583 0 .23)">
      <stop offset="0%" stop-color="#00D0FE"/>
      <stop offset="69.09%" stop-color="#0093E9"/>
      <stop offset="100%" stop-color="#0077B2"/>
    </radialGradient>
    <radialGradient id="b" cx="26.4%" cy="94.95%" r="112.18%" fx="26.4%" fy="94.95%" gradientTransform="matrix(1 0 0 .73585 0 .25)">
      <stop offset="0%" stop-color="#F79606"/>
      <stop offset="100%" stop-color="#F96603"/>
    </radialGradient>
  </defs>
  <g fill="none" fill-rule="nonzero">
    <path fill="url(#a)" d="M52.33 137.56c-10.04-2.55-15.65-12.2-14.87-22.3 1.43-18.84-3.6-29.88-24.85-39.7-.53-.24-1.04-.5-1.54-.8l-.03-.01c-2-1.15-3.75-2.63-5.2-4.34l-.06-.07c-.35-.41-.69-.84-1-1.29L4.74 69c-.64-.9-1.21-1.86-1.7-2.87a19.63 19.63 0 0 1-.64-1.49l-.06-.16c-.19-.48-.35-.96-.49-1.46a18.96 18.96 0 0 1-.42-1.71l-.02-.12c-.1-.52-.18-1.04-.24-1.57v-.07c-.06-.52-.1-1.04-.1-1.57l-.01-.24c-.01-.5 0-1.02.04-1.53l.01-.27a18 18 0 0 1 .18-1.55l.04-.22a20.84 20.84 0 0 1 .82-3.23l.07-.21c.17-.5.37-.98.58-1.45l.11-.26c.22-.46.45-.92.7-1.36.03-.07.08-.14.12-.2.26-.46.53-.9.83-1.34l.04-.05c.3-.44.62-.86.96-1.27l.07-.1c.34-.4.69-.78 1.05-1.16l.14-.14c.36-.37.73-.72 1.12-1.06l.14-.11c.4-.34.82-.67 1.24-.98l.04-.03c.9-.64 1.85-1.2 2.84-1.7l.07-.04c.48-.24.98-.46 1.49-.65.02-.02.05-.02.08-.03 2.1-.82 4.34-1.28 6.64-1.34h.04c.58-.02 1.16-.01 1.74.02 16.84.71 28.44-3.37 35.47-12.67a44.75 44.75 0 0 0 4.7-8.6l.1-.21c3.4-8.72 11-14.86 19.79-14.7 1.42.02 2.88.19 4.36.56a20 20 0 0 1 14.48 14.47l.13.62c.1.42.2.84.26 1.28.1.62.16 1.24.2 1.88v.06c.1 1.8-.07 3.64-.48 5.47l-.1.52c-2.55 10.04-12.24 16.07-22.3 14.88l-.25-.02a61.16 61.16 0 0 0-13.33.5c-12.96 1.83-21.6 10.3-24.41 20.67-4.06 14.98 3.75 29.3 21.4 36.63 10.13 4.23 17.04 13.6 14.34 24.26a20 20 0 0 1-19.37 15.1 20 20 0 0 1-4.92-.62" transform="matrix(1 0 0 -1 0 139.47)"/>
    <path fill="url(#b)" d="M84.8 183.1c-1.43-.02-2.89-.2-4.37-.57a20 20 0 0 1-14.48-14.46l-.13-.62c-.1-.43-.2-.85-.26-1.28-.1-.62-.16-1.25-.2-1.88v-.07c-.1-1.8.07-3.63.49-5.47l.1-.51c2.54-10.05 12.23-16.07 22.3-14.88l.24.02c4.95.37 9.32.07 13.34-.5 12.95-1.83 21.6-10.31 24.4-20.68 4.06-14.97-3.75-29.29-21.4-36.63C94.7 81.35 87.8 71.97 90.5 61.32a20 20 0 0 1 24.3-14.48c10.03 2.54 15.64 12.19 14.87 22.3-1.44 18.84 3.59 29.88 24.84 39.69.53.24 1.04.5 1.54.8l.03.01c2 1.16 3.75 2.64 5.21 4.35l.05.06c.35.42.69.85 1 1.29l.04.06c.64.9 1.21 1.86 1.7 2.86l.01.03c.23.48.44.97.63 1.46l.06.17c.19.47.35.96.49 1.45l.05.2c.15.5.27 1 .37 1.52l.02.12c.1.52.18 1.03.24 1.57l.01.06c.06.52.08 1.05.1 1.58v.24c.01.5 0 1.01-.03 1.52l-.02.28c-.04.52-.1 1.04-.18 1.55 0 .07-.03.15-.04.22-.09.55-.2 1.09-.33 1.63-.14.55-.3 1.07-.49 1.6l-.07.2c-.17.5-.37.99-.58 1.46l-.11.25c-.22.46-.45.92-.7 1.37l-.12.2c-.26.45-.53.9-.83 1.33a17.73 17.73 0 0 1-1 1.33l-.07.1c-.34.4-.69.78-1.05 1.15l-.14.15c-.36.36-.73.72-1.12 1.05l-.14.12c-.4.34-.81.67-1.24.98l-.03.02c-.9.65-1.86 1.22-2.85 1.71l-.07.03c-.48.24-.98.46-1.49.66l-.08.03c-2.1.81-4.34 1.28-6.64 1.34h-.04c-.57.02-1.15 0-1.74-.03-16.84-.7-28.44 3.37-35.47 12.67a44.85 44.85 0 0 0-4.7 8.61l-.1.2c-3.35 8.62-10.8 14.71-19.46 14.71h-.33" transform="matrix(1 0 0 -1 0 229.32)"/>
    <path fill="#2f3033" d="M236.32 122.77c5.72 0 7.8-1.82 7.8-5.2 0-4.17-3.9-5.86-10.4-7.81-11.84-3.51-24.72-8.33-24.72-23.42 0-11.06 7.15-18.21 23.42-18.21 11.7 0 20.81 2.6 20.81 2.6.65.26 1.17.78 1.3 1.3 0 0 1.3 9.89 1.3 10.4 0 .79-.52 1.3-1.3 1.3-.65 0-11.06-2.6-22.11-2.6-5.2 0-7.81 1.83-7.81 5.21 0 4.16 3.9 5.85 10.4 7.8 11.85 3.52 24.72 8.2 24.72 23.42 0 10.41-8.45 18.22-23.41 18.22-14.31 0-24.72-3.9-24.72-3.9-.65-.27-1.17-.79-1.3-1.3 0 0-1.3-9.9-1.3-10.41 0-.79.52-1.3 1.3-1.3.65 0 14.31 3.9 26.02 3.9M286.66 95.45h29.14c-.52-7.29-3.77-14.31-12.88-14.31-12.36 0-15.35 6.11-16.26 14.3zm0 13c1.04 8.33 4.55 14.32 17.56 14.32 10.41 0 21.47-2.6 22.12-2.6.78 0 1.3.52 1.3 1.3 0 .39-1.3 10.4-1.3 10.4-.13.65-.52 1.17-1.3 1.3 0 0-9.11 2.6-20.82 2.6-27.97 0-33.82-15.22-33.82-33.82s5.98-33.7 32.52-33.7c18.47 0 28.75 10.29 28.75 33.7v5.2c0 .66-.65 1.3-1.43 1.3h-43.58zM346.37 39.38c0-.78.52-1.3 1.3-1.3l13.01-1.3c.78 0 1.3.52 1.3 1.3v85.99c0 5.2 1.3 8.58 1.3 9.1 0 .78-.52 1.3-1.3 1.3h-13c-.53 0-1.05-.52-1.3-1.3 0 0-1.31-3.9-1.31-9.1v-84.7zM381.1 39.38c0-.78.52-1.3 1.3-1.3l13.01-1.3c.78 0 1.3.52 1.3 1.3v85.99c0 5.2 1.3 8.58 1.3 9.1 0 .78-.52 1.3-1.3 1.3h-13c-.53 0-1.05-.52-1.3-1.3 0 0-1.3-3.9-1.3-9.1v-84.7zM428.45 95.45h29.14c-.52-7.29-3.77-14.31-12.88-14.31-12.36 0-15.35 6.11-16.26 14.3zm0 13c1.04 8.33 4.56 14.32 17.57 14.32 10.4 0 21.46-2.6 22.11-2.6.78 0 1.3.52 1.3 1.3 0 .39-1.3 10.4-1.3 10.4-.13.65-.52 1.17-1.3 1.3 0 0-9.1 2.6-20.81 2.6-27.97 0-33.83-15.22-33.83-33.82s5.99-33.7 32.52-33.7c18.48 0 28.76 10.29 28.76 33.7v5.2c0 .66-.66 1.3-1.43 1.3h-43.59zM516.78 122.77c13.01 0 16.92-7.8 16.92-20.82 0-13-3.9-20.81-16.92-20.81-13 0-16.9 7.8-16.9 20.81 0 13.01 3.9 20.82 16.9 20.82m0-54.64c19.52 0 32.53 10.4 32.53 33.82s-13.01 33.83-32.53 33.83c-19.5 0-32.52-10.41-32.52-33.83 0-23.41 13.01-33.82 32.52-33.82"/>
  </g>
</svg>